# AST/ASF file generated using VICON BodyLanguage
# -----------------------------------------------
:version 1.10
:name VICON
:units
  mass 1.0
  length 0.45
  angle deg
:documentation
   .ast/.asf automatically generated from VICON data using
   VICON BodyBuilder and BodyLanguage model FoxedUp or BRILLIANT.MOD
:root
   order TX TY TZ RX RY RZ
   axis XYZ
   position 0 0 0  
   orientation 0 0 0 
:bonedata
  begin
     id 1 
     name lhipjoint
     direction 0.693937 -0.600361 0.397515 
     length 2.37164 
     axis 0 0 0  XYZ
  end
  begin
     id 2 
     name lfemur
     direction 0.34202 -0.939693 0  
     length 6.18497  
     axis 0 0 20  XYZ
    dof rx ry rz
    limits (-160.0 20.0)
           (-70.0 70.0)
           (-60.0 70.0)
  end
  begin
     id 3 
     name ltibia
     direction 0.34202 -0.939693 0   
     length 6.91601   
     axis 0 0 20   XYZ
    dof rx
    limits (-10.0 170.0)
  end
  begin
     id 4 
     name lfoot
     direction 0.0978718 -0.2689 0.958182   
     length 1.81453   
     axis -90 7.62852e-016 20   XYZ
    dof rx rz
    limits (-45.0 90.0)
           (-70.0 20.0)
  end
  begin
     id 5 
     name ltoes
     direction 1.53569e-011 -4.21951e-011 1   
     length 0.912052   
     axis -90 7.62852e-016 20   XYZ
    dof rx
    limits (-90.0 20.0)
  end
  begin
     id 6 
     name rhipjoint
     direction -0.643996 -0.637876 0.422354   
     length 2.23216  
     axis 0 0 0  XYZ 
  end
  begin
     id 7 
     name rfemur
     direction -0.34202 -0.939693 0   
     length 6.15404   
     axis 0 0 -20   XYZ
    dof rx ry rz
    limits (-160.0 20.0)
           (-70.0 70.0)
           (-70.0 60.0)
  end
  begin
     id 8 
     name rtibia
     direction -0.34202 -0.939693 0   
     length 6.86744   
     axis 0 0 -20   XYZ
    dof rx
    limits (-10.0 170.0)
 end
 begin
     id 9 
     name rfoot
     direction -0.118701 -0.326127 0.937844   
     length 1.9243  
     axis -90 -7.62852e-016 -20   XYZ
    dof rx rz
    limits (-45.0 90.0)
           (-20.0 70.0)
  end
  begin
     id 10 
     name rtoes
     direction -1.5356e-011 -4.2181e-011 1   
     length 0.958865   
     axis -90 -7.62852e-016 -20   XYZ
    dof rx
    limits (-90.0 20.0)
  end
  begin
     id 11 
     name lowerback
     direction 0.0310826 0.968686 -0.246334   
     length 2.00021   
     axis 0 0 0   XYZ
    dof rx ry rz
    limits (-20.0 45.0)
           (-30.0 30.0)
           (-30.0 30.0)
  end
  begin
     id 12 
     name upperback
     direction -0.0152834 0.999474 -0.0286152   
     length 2.03728   
     axis 0 0 0   XYZ
    dof rx ry rz
    limits (-20.0 45.0)
           (-30.0 30.0)
           (-30.0 30.0)
  end
  begin
     id 13 
     name thorax
     direction -0.0323701 0.996236 0.0804149   
     length 2.16   
     axis 0 0 0   XYZ
    dof rx ry rz
    limits (-20.0 45.0)
           (-30.0 30.0)
           (-30.0 30.0)
  end
  begin
     id 14 
     name lowerneck
     direction 0.0307935 0.982251 0.185027   
     length 1.43558   
     axis 0 0 0   XYZ
    dof rx ry rz
    limits (-20.0 45.0)
           (-30.0 30.0)
           (-30.0 30.0)
  end
  begin
     id 15 
     name upperneck
     direction -0.0927153 0.994775 0.0427454   
     length 1.44603   
     axis 0 0 0   XYZ
    dof rx ry rz
    limits (-20.0 45.0)
           (-30.0 30.0)
           (-30.0 30.0)
  end
  begin
     id 16
     name head
     direction -0.0341265 0.999406 -0.00472033  
     length 1.45931  
     axis 0 0 0   XYZ
    dof rx ry rz
    limits (-20.0 45.0)
           (-30.0 30.0)
           (-30.0 30.0)
  end
  begin
     id 17 
     name lclavicle
     direction 0.820755 0.555306 -0.134151  
     length 2.66075  
     axis 0 0 0   XYZ
    dof ry rz
    limits (-20.0 10.0)
           (0.0 20.0)
  end
  begin
     id 18 
     name lhumerus
     direction 1 -4.48971e-011 5.24853e-027   
     length 5.0546   
     axis -180 -30 -90   XYZ
    dof rx ry rz
    limits (-60.0 90.0)
           (-90.0 90.0)
           (-90.0 90.0)
  end
  begin
     id 19
     name lradius
     direction 1 -4.48971e-011 2.76575e-028   
     length 3.39013   
     axis -180 -30 -90   XYZ
    dof rx
    limits (-10.0 170.0)
  end
  begin
     id 20
     name lwrist
     direction 1 -4.48939e-011 -2.27826e-027   
     length 1.69507   
     axis 2.17013e-015 90 90   XYZ
    dof ry
    limits (-180.0 0.0)
 end
  begin
     id 21 
     name lhand
     direction 1 -4.49009e-011 -4.55652e-027   
     length 0.572425   
     axis 2.90745e-015 90 90   XYZ
    dof rx rz
    limits (-90.0 90.0)
           (-45.0 45.0)
  end
  begin
     id 22 
     name lfingers
     direction 1 -4.48955e-011 -9.11303e-027   
     length 0.461504   
     axis 5.81489e-015 90 90   XYZ
    dof rx
    limits (0.0 90.0)
  end
  begin
     id 23
     name lthumb
     direction 0.707107 -6.34929e-011 0.707107   
     length 0.66263   
     axis -90 45 2.85299e-015   XYZ
    dof rx rz
    limits (-45.0 45.0)
           (-45.0 45.0)
  end
  begin
     id 24 
     name rclavicle
     direction -0.754477 0.632921 -0.173712   
     length 2.73081  
     axis 0 0 0   XYZ 
    dof ry rz
    limits (-10.0 20.0)
           (-20.0 0.0)
  end
  begin
     id 25 
     name rhumerus
     direction -1 -4.48969e-011 5.1496e-027  
     length 5.0701   
     axis -180 30 90   XYZ
    dof rx ry rz
    limits (-90.0 60.0)
           (-90.0 90.0)
           (-90.0 90.0)
  end
  begin
     id 26 
     name rradius
     direction -1 -4.48967e-011 -7.15624e-028   
     length 3.14957   
     axis -180 30 90   XYZ
    dof rx
    limits (-10.0 170.0)
  end
  begin
     id 27 
     name rwrist
     direction -1 -4.48938e-011 -2.27826e-027   
     length 1.57479   
     axis 2.17013e-015 -90 -90   XYZ
    dof ry
    limits (-180.0 0.0)
  end
  begin
     id 28
     name rhand
     direction -1 -4.49008e-011 -4.55652e-027   
     length 0.718191   
     axis 2.90745e-015 -90 -90   XYZ
    dof rx rz
    limits (-90.0 90.0)
           (-45.0 45.0)
  end
  begin
     id 29
     name rfingers
     direction -1 -4.48953e-011 -9.11303e-027   
     length 0.579024   
     axis 5.81489e-015 -90 -90   XYZ
    dof rx
    limits (0.0 90.0)
  end
  begin
     id 30
     name rthumb
     direction -0.707107 -6.34937e-011 0.707107   
     length 0.831366   
     axis -90 -45 -2.85299e-015   XYZ
    dof rx rz
    limits (-45.0 45.0)
           (-45.0 45.0)
  end
:hierarchy
  begin
    root lhipjoint rhipjoint lowerback
    lhipjoint lfemur
    lfemur ltibia
    ltibia lfoot
    lfoot ltoes
    rhipjoint rfemur
    rfemur rtibia
    rtibia rfoot
    rfoot rtoes
    lowerback upperback
    upperback thorax
    thorax lowerneck lclavicle rclavicle
    lowerneck upperneck
    upperneck head
    lclavicle lhumerus
    lhumerus lradius
    lradius lwrist
    lwrist lhand lthumb
    lhand lfingers
    rclavicle rhumerus
    rhumerus rradius
    rradius rwrist
    rwrist rhand rthumb
    rhand rfingers
  end

#!OML:ASF H:\Male1\Project 1\Capture day 1\Session 1\Male1.ASF
:FULLY-SPECIFIED
:DEGREES
1
root -25.6521 15.173 0.0506119 -171.999 -86.3085 170.289
lowerback 2.7218 2.11397 -3.21034
upperback 3.32939 2.72061 -1.58128
thorax 1.82237 1.27767 0.140514
lowerneck -8.42443 2.24898 6.44855
upperneck 3.07749 2.37704 -1.69648
head 2.57715 1.20771 -1.56653
rclavicle -2.32578e-014 2.62396e-014
rhumerus -32.1153 -0.212452 -91.2833
rradius 30.4899
rwrist -12.8115
rhand -21.4743 -0.453546
rfingers 7.12502
rthumb 4.91637 -30.3765
lclavicle -2.32578e-014 2.62396e-014
lhumerus -28.4252 -4.99429 89.7341
lradius 27.1233
lwrist -3.43199
lhand -18.111 15.1363
lfingers 7.12502
lthumb 8.16321 44.9586
rfemur -6.59483 19.1216 22.3227
rtibia 28.0066
rfoot -28.6376 -29.0173
rtoes -19.4653
lfemur -4.48086 -20.0194 -25.129
ltibia 25.9094
lfoot -24.6144 26.5946
ltoes 1.5204
2
root -25.6523 15.1719 0.0516285 -171.303 -86.3117 169.584
lowerback 2.72223 2.0923 -3.28878
upperback 3.32867 2.69041 -1.57446
thorax 1.81843 1.26079 0.191506
lowerneck -8.385 2.23615 6.43421
upperneck 3.11231 2.36929 -1.77239
head 2.58257 1.20229 -1.58971
rclavicle 3.01159e-014 7.15625e-015
rhumerus -32.1253 -0.135395 -91.2269
rradius 30.5556
rwrist -13.1336
rhand -21.2925 -0.452757
rfingers 7.12502
rthumb 5.09197 -30.3716
lclavicle 3.01159e-014 7.15625e-015
lhumerus -28.419 -4.95371 89.7745
lradius 27.169
lwrist -3.40902
lhand -18.0954 15.2608
lfingers 7.12502
lthumb 8.17823 45.0825
rfemur -6.61971 19.0846 22.2651
rtibia 28.0645
rfoot -28.6535 -28.9803
rtoes -19.4602
lfemur -4.44053 -20.1032 -25.1835
ltibia 25.8518
lfoot -24.7359 26.5237
ltoes 2.30419
3
root -25.6528 15.1722 0.0522114 -171.036 -86.3092 169.327
lowerback 2.71948 2.09641 -3.32577
upperback 3.33081 2.69538 -1.5797
thorax 1.82071 1.26237 0.206772
lowerneck -8.40478 2.17254 6.48849
upperneck 3.14151 2.28331 -1.87454
head 2.59565 1.15757 -1.63782
rclavicle 2.03754e-014 -1.59028e-014
rhumerus -32.1428 -0.104854 -91.2012
rradius 30.6107
rwrist -13.2799
rhand -21.2955 -0.386364
rfingers 7.12502
rthumb 5.089 -30.3053
lclavicle 2.03754e-014 -1.59028e-014
lhumerus -28.3723 -4.96722 89.8068
lradius 27.1706
lwrist -3.41858
lhand -18.0204 15.6413
lfingers 7.12502
lthumb 8.25068 45.4602
rfemur -6.65147 18.9804 22.226
rtibia 28.0869
rfoot -28.5683 -28.9277
rtoes -19.7274
lfemur -4.44423 -20.0697 -25.1953
ltibia 25.8243
lfoot -24.7359 26.4831
ltoes 2.18325
4
root -25.6526 15.1723 0.0519767 -170.28 -86.2967 168.561
lowerback 2.74324 2.08823 -3.41526
upperback 3.32456 2.68148 -1.59575
thorax 1.79828 1.25378 0.239223
lowerneck -8.44711 2.11887 6.49343
upperneck 3.20034 2.2073 -1.85887
head 2.61974 1.1212 -1.63756
rclavicle 1.25234e-014 9.54166e-015
rhumerus -32.2088 0.0427031 -91.2486
rradius 30.6665
rwrist -13.3421
rhand -21.4491 -0.36109
rfingers 7.12502
rthumb 4.9407 -30.2835
lclavicle 1.25234e-014 9.54166e-015
lhumerus -28.3381 -5.02624 89.8174
lradius 27.1534
lwrist -3.39259
lhand -18.0592 15.9138
lfingers 7.12502
lthumb 8.21322 45.7341
rfemur -6.64596 18.9936 22.1771
rtibia 28.0959
rfoot -28.5692 -28.9432
rtoes -19.8219
lfemur -4.42626 -20.0265 -25.2478
ltibia 25.8097
lfoot -24.7473 26.419
ltoes 2.21877
5
root -25.6516 15.1732 0.0519844 -170.537 -86.3033 168.827
lowerback 2.76181 2.0677 -3.43671
upperback 3.31985 2.6527 -1.58927
thorax 1.78262 1.23913 0.257426
lowerneck -8.53251 2.09845 6.43033
upperneck 3.23947 2.17488 -1.7605
head 2.64409 1.10761 -1.5952
rclavicle 9.14409e-015 -2.14687e-014
rhumerus -32.2009 0.192407 -91.278
rradius 30.6232
rwrist -13.4009
rhand -21.5106 -0.321821
rfingers 7.12502
rthumb 4.88132 -30.2456
lclavicle 9.14409e-015 -2.14687e-014
lhumerus -28.2827 -5.16332 89.8461
lradius 27.136
lwrist -3.29373
lhand -18.3315 15.9696
lfingers 7.12502
lthumb 7.95036 45.8001
rfemur -6.65263 19.0766 22.2057
rtibia 28.0926
rfoot -28.6334 -28.9989
rtoes -19.6657
lfemur -4.44067 -20.0296 -25.2155
ltibia 25.8084
lfoot -24.7293 26.3804
ltoes 2.44883
6
root -25.6514 15.1744 0.0529056 -170.985 -86.3277 169.302
lowerback 2.74999 2.06931 -3.40816
upperback 3.31862 2.65604 -1.58538
thorax 1.7889 1.24142 0.245923
lowerneck -8.64895 2.05932 6.26131
upperneck 3.28685 2.12162 -1.56884
head 2.67217 1.08528 -1.50397
rclavicle 1.54058e-014 -7.15625e-015
rhumerus -32.1536 0.210047 -91.2445
rradius 30.5268
rwrist -13.4007
rhand -21.4735 -0.264197
rfingers 7.12502
rthumb 4.91712 -30.1871
lclavicle 1.54058e-014 -7.15625e-015
lhumerus -28.2329 -5.42601 89.921
lradius 27.1579
lwrist -3.10097
lhand -18.7632 15.8168
lfingers 7.12502
lthumb 7.53377 45.6627
rfemur -6.67914 19.0824 22.2326
rtibia 28.091
rfoot -28.6339 -29.0253
rtoes -19.6936
lfemur -4.483 -20.0492 -25.1711
ltibia 25.8121
lfoot -24.6162 26.4484
ltoes 1.91418
7
root -25.6531 15.1735 0.0537946 -170.573 -86.3347 168.886
lowerback 2.72485 2.08664 -3.42141
upperback 3.3289 2.68029 -1.60646
thorax 1.81335 1.25284 0.232475
lowerneck -8.74921 2.01632 6.16413
upperneck 3.34213 2.0606 -1.44609
head 2.70273 1.05818 -1.4491
rclavicle -2.05742e-014 9.54166e-015
rhumerus -32.1517 0.153894 -91.2036
rradius 30.4845
rwrist -13.3026
rhand -21.4729 -0.282514
rfingers 7.12502
rthumb 4.91778 -30.2054
lclavicle -2.05742e-014 9.54166e-015
lhumerus -28.1554 -5.64933 89.9732
lradius 27.1434
lwrist -3.01829
lhand -18.8908 15.689
lfingers 7.12502
lthumb 7.41051 45.5392
rfemur -6.66202 19.0394 22.1979
rtibia 28.0834
rfoot -28.648 -28.984
rtoes -19.6974
lfemur -4.48223 -20.04 -25.2148
ltibia 25.8268
lfoot -24.5578 26.5103
ltoes 1.46061
